<svg width="368" height="561" viewBox="0 0 368 561" fill="none" xmlns="http://www.w3.org/2000/svg">
<g clip-path="url(#clip0_546_2381)">
<rect y="173" width="368" height="388" rx="13" fill="white"/>
<g opacity="0.8" filter="url(#filter0_f_546_2381)">
<path d="M-29 335.156L87.6097 577H296.369L398 332L-29 335.156Z" fill="url(#paint0_linear_546_2381)"/>
</g>
</g>
<g clip-path="url(#clip1_546_2381)">
<path d="M0 247C44.5 260.167 141.6 293.8 174 323C214.5 359.5 82 416 76 428.5C69.9637 441.076 40.883 515.732 369.86 611.643C379.615 614.487 390.667 615.483 399.142 609.878C436.666 585.058 443.82 499.997 303 414" stroke="#090A0C" stroke-opacity="0.3" stroke-width="2" stroke-dasharray="8 8"/>
<g filter="url(#filter1_d_546_2381)">
<path d="M64 252.636C64 249.8 66.2996 247.5 69.1362 247.5H109.711C112.548 247.5 114.847 249.8 114.847 252.636V300.849C114.847 303.686 112.548 305.985 109.711 305.985H69.1362C66.2996 305.985 64 303.686 64 300.849V252.636Z" fill="white"/>
<path d="M64.25 252.636C64.25 249.938 66.4376 247.75 69.1362 247.75H109.711C112.41 247.75 114.597 249.938 114.597 252.636V300.849C114.597 303.547 112.41 305.735 109.711 305.735H69.1362C66.4376 305.735 64.25 303.547 64.25 300.849V252.636Z" stroke="#EBECEF" stroke-width="0.5"/>
<path d="M91.4803 262.148C92.1304 261.564 92.8889 261.491 93.7203 261.459C94.1503 261.442 94.3652 261.434 94.5411 261.492C94.8201 261.584 95.0491 261.79 95.1695 262.058C95.2453 262.227 95.2596 262.441 95.2882 262.871C95.3434 263.701 95.3499 264.463 94.837 265.17C94.4051 265.766 93.6269 266.106 93.278 266.757C93.0116 267.254 93.1735 267.746 93.3257 268.253L94.4649 272.047C94.6919 272.803 94.5754 273.302 94.0679 273.865C93.7979 274.165 93.5601 274.163 93.3097 273.807L90.2433 269.446L88.948 270.591C88.4783 271.006 88.2435 271.214 88.1291 271.495C87.8612 272.153 88.1032 273.107 88.1494 273.802C88.1749 274.187 87.8822 274.962 87.4132 275.013C87.1236 275.044 87.0066 274.701 86.9017 274.493L85.891 272.488C85.6494 272.008 85.64 272 85.1378 271.81L83.0378 271.014C82.8197 270.931 82.4672 270.851 82.4678 270.56C82.4687 270.088 83.2095 269.716 83.5944 269.701C84.291 269.674 85.2653 269.815 85.8914 269.48C86.1588 269.337 86.3407 269.082 86.7046 268.571L87.7081 267.163L83.0506 264.569C82.6702 264.358 82.6433 264.121 82.9133 263.821C83.4208 263.258 83.9043 263.09 84.68 263.237L88.5726 263.973C89.0925 264.071 89.5985 264.181 90.0649 263.864C90.6758 263.449 90.9329 262.64 91.4803 262.148Z" fill="#783BF0" stroke="#783BF0" stroke-width="1.10061" stroke-linecap="round" stroke-linejoin="round"/>
<path d="M77.3696 292.634L77.0203 285.966L81.2973 285.742L81.3597 286.933L78.3877 287.088L78.4715 288.689L80.9482 288.559L81.0106 289.749L78.5339 289.879L78.6746 292.565L77.3696 292.634ZM82.5107 292.364L82.2612 287.602L83.5185 287.536L83.7681 292.299L82.5107 292.364ZM82.8494 286.797C82.6589 286.807 82.487 286.746 82.3336 286.614C82.1799 286.476 82.0979 286.308 82.0876 286.111C82.0772 285.914 82.1414 285.742 82.2802 285.595C82.4186 285.441 82.5831 285.359 82.7736 285.349C82.9704 285.339 83.1425 285.403 83.2899 285.542C83.4433 285.674 83.5251 285.838 83.5354 286.035C83.5458 286.232 83.4817 286.407 83.3433 286.561C83.2109 286.708 83.0463 286.787 82.8494 286.797ZM87.1485 294.156C86.7865 294.175 86.4645 294.166 86.1824 294.13C85.9003 294.094 85.6619 294.04 85.467 293.967C85.2722 293.895 85.1123 293.82 84.9873 293.744L85.4297 292.708C85.5213 292.754 85.6418 292.805 85.7912 292.861C85.9409 292.923 86.1185 292.971 86.3241 293.005C86.5299 293.045 86.7662 293.058 87.0329 293.045C87.287 293.031 87.5066 292.969 87.6918 292.857C87.8836 292.752 88.028 292.591 88.125 292.376C88.2287 292.167 88.2722 291.903 88.2556 291.586L88.031 287.299L89.2884 287.234L89.5109 291.482C89.5389 292.015 89.4612 292.478 89.278 292.87C89.0951 293.268 88.8214 293.575 88.4571 293.791C88.0991 294.008 87.6629 294.129 87.1485 294.156ZM86.7875 292.007C86.3494 292.03 85.9633 291.954 85.6295 291.781C85.302 291.607 85.0404 291.353 84.8446 291.02C84.6488 290.686 84.5386 290.284 84.514 289.814C84.488 289.319 84.5545 288.886 84.7133 288.514C84.8718 288.137 85.1047 287.841 85.4119 287.628C85.7251 287.407 86.1008 287.286 86.539 287.263C86.92 287.243 87.2556 287.327 87.5456 287.516C87.8354 287.698 88.0661 287.969 88.2378 288.33C88.4095 288.69 88.5087 289.124 88.5353 289.632C88.5592 290.089 88.504 290.494 88.3695 290.844C88.2351 291.195 88.0332 291.473 87.7637 291.679C87.494 291.877 87.1686 291.987 86.7875 292.007ZM87.0941 290.93C87.31 290.919 87.4945 290.855 87.6476 290.739C87.8068 290.616 87.9258 290.457 88.0047 290.262C88.0833 290.06 88.1161 289.836 88.1031 289.588C88.0898 289.334 88.0305 289.114 87.9253 288.929C87.8264 288.743 87.6916 288.6 87.5208 288.501C87.3564 288.401 87.1663 288.357 86.9503 288.368C86.7281 288.38 86.534 288.444 86.3682 288.561C86.2024 288.678 86.0769 288.835 85.9916 289.03C85.9063 289.226 85.8672 289.45 85.8741 289.705C85.8935 289.952 85.9559 290.172 86.0615 290.364C86.1667 290.549 86.3081 290.695 86.4855 290.8C86.669 290.899 86.8718 290.942 87.0941 290.93ZM90.6008 291.941L90.2515 285.273L91.5088 285.207L91.8582 291.875L90.6008 291.941ZM93.7633 291.775L93.6355 289.336L94.8929 289.271L95.0207 291.709L93.7633 291.775ZM93.6355 289.336C93.6186 289.013 93.5673 288.764 93.4818 288.59C93.3963 288.416 93.2849 288.295 93.1475 288.225C93.0098 288.15 92.8521 288.117 92.6743 288.126C92.3501 288.137 92.1044 288.248 91.9372 288.461C91.7764 288.673 91.7065 288.979 91.7274 289.379L91.3083 289.401C91.2817 288.893 91.3323 288.46 91.46 288.104C91.5938 287.74 91.7892 287.459 92.0463 287.261C92.3094 287.056 92.6219 286.944 92.9839 286.925C93.3649 286.905 93.6896 286.965 93.9579 287.103C94.2326 287.242 94.4483 287.469 94.605 287.786C94.7614 288.096 94.8528 288.505 94.8794 289.013L94.8929 289.271L93.6355 289.336ZM97.9635 291.669C97.4364 291.697 97.0295 291.588 96.7428 291.342C96.4625 291.095 96.3097 290.731 96.2844 290.248L96.0299 285.39L97.2872 285.324L97.5273 289.906C97.5379 290.109 97.5905 290.263 97.6851 290.366C97.7793 290.463 97.9122 290.507 98.0836 290.498C98.1471 290.495 98.2163 290.478 98.2912 290.449C98.3657 290.413 98.4428 290.364 98.5223 290.303L99.0099 291.223C98.8635 291.345 98.6969 291.446 98.51 291.526C98.3299 291.612 98.1477 291.66 97.9635 291.669ZM95.392 287.984L95.3361 286.917L98.5558 286.748L98.6117 287.815L95.392 287.984ZM101.587 291.48C101.282 291.496 100.994 291.466 100.722 291.391C100.451 291.31 100.209 291.189 99.9964 291.028C99.7839 290.861 99.6138 290.653 99.4862 290.405L100.537 289.854C100.64 290.001 100.777 290.128 100.948 290.233C101.119 290.333 101.312 290.376 101.528 290.365C101.738 290.354 101.898 290.317 102.009 290.254C102.12 290.185 102.173 290.093 102.167 289.978C102.161 289.864 102.109 289.784 102.011 289.738C101.919 289.686 101.793 289.644 101.632 289.615L101.188 289.523C100.724 289.427 100.352 289.255 100.072 289.009C99.7977 288.756 99.6516 288.458 99.6336 288.115C99.608 287.626 99.7438 287.24 100.041 286.957C100.345 286.673 100.785 286.517 101.363 286.486C101.662 286.471 101.94 286.501 102.199 286.576C102.464 286.651 102.693 286.764 102.885 286.913C103.078 287.062 103.214 287.239 103.295 287.445L102.282 287.976C102.231 287.851 102.117 287.755 101.942 287.688C101.766 287.615 101.592 287.582 101.421 287.591C101.25 287.6 101.118 287.645 101.027 287.727C100.942 287.801 100.902 287.902 100.909 288.029C100.913 288.111 100.961 288.179 101.053 288.231C101.145 288.278 101.274 288.315 101.441 288.345L102.069 288.465C102.384 288.525 102.638 288.635 102.831 288.797C103.03 288.952 103.176 289.133 103.27 289.338C103.37 289.536 103.425 289.734 103.435 289.931C103.45 290.217 103.377 290.475 103.218 290.707C103.064 290.931 102.844 291.111 102.558 291.247C102.279 291.383 101.955 291.46 101.587 291.48Z" fill="black"/>
</g>
<g filter="url(#filter2_d_546_2381)">
<path d="M119 507.636C119 504.8 121.3 502.5 124.136 502.5H189.758C192.595 502.5 194.894 504.8 194.894 507.636V554.478C194.894 557.314 192.595 559.614 189.758 559.614H124.136C121.3 559.614 119 557.314 119 554.478V507.636Z" fill="white"/>
<path d="M119.25 507.636C119.25 504.938 121.438 502.75 124.136 502.75H189.758C192.457 502.75 194.644 504.938 194.644 507.636V554.478C194.644 557.176 192.457 559.364 189.758 559.364H124.136C121.438 559.364 119.25 557.176 119.25 554.478V507.636Z" stroke="#EBECEF" stroke-width="0.5"/>
<path d="M153.327 522.624C153.327 522.624 153.327 524.825 155.479 525.559" stroke="#C19F28" stroke-width="1.10061" stroke-linecap="round" stroke-linejoin="round"/>
<path d="M164.284 529.501C163.224 530.096 161.867 530.096 160.807 529.501C160.167 529.136 159.325 529.136 158.686 529.501C158.686 529.501 158.67 529.501 158.67 529.515C157.61 530.11 156.253 530.11 155.208 529.515C154.553 529.15 153.726 529.15 153.087 529.515M153.087 529.501C152.027 530.096 150.67 530.096 149.609 529.501" stroke="#C19F28" stroke-width="1.10061" stroke-linecap="round"/>
<path d="M156.213 518.955C156.213 522.805 159.334 525.926 163.184 525.925L164.284 525.925" stroke="#C19F28" stroke-width="1.10061" stroke-linecap="round"/>
<path d="M153.196 518.9C153.469 519.058 153.997 519.454 154.878 519.296C155.934 518.97 156.801 518.697 157.475 519.102C158.135 519.498 158.576 519.85 158.84 519.674C158.97 519.7 159.189 519.2 159.144 518.486C159.113 517.995 158.943 517.404 158.567 516.813C158.347 516.505 158.205 516.396 158.179 516.372C156.753 515.033 154.451 514.813 152.412 516.373C150.123 518.222 149.815 520.555 149.683 521.7C149.463 523.901 149.815 526.41 150.167 527.775" stroke="#C19F28" stroke-width="1.10061" stroke-linecap="round"/>
<path d="M131.072 546.298L131.072 539.621L135.297 539.62L135.297 540.813L132.379 540.813L132.379 542.329L134.897 542.329L134.897 543.493L132.379 543.493L132.379 545.105L135.336 545.105L135.336 546.297L131.072 546.298ZM136.031 546.297L137.986 543.569L139.35 541.528L140.838 541.528L138.94 544.189L137.538 546.297L136.031 546.297ZM139.455 546.297L138.072 544.189L136.155 541.528L137.643 541.528L139.007 543.569L140.953 546.297L139.455 546.297ZM141.612 548.205L141.612 541.528L142.795 541.528L142.871 542.405L142.871 548.205L141.612 548.205ZM144.312 546.412C143.911 546.412 143.571 546.31 143.291 546.106C143.017 545.903 142.808 545.614 142.661 545.238C142.515 544.863 142.442 544.421 142.442 543.913C142.442 543.397 142.515 542.956 142.661 542.587C142.808 542.212 143.017 541.922 143.291 541.719C143.571 541.515 143.911 541.413 144.311 541.413C144.75 541.413 145.129 541.515 145.447 541.719C145.771 541.922 146.022 542.211 146.2 542.587C146.378 542.955 146.467 543.397 146.467 543.912C146.467 544.421 146.378 544.863 146.2 545.238C146.022 545.614 145.771 545.903 145.447 546.106C145.129 546.31 144.75 546.412 144.312 546.412ZM143.987 545.257C144.216 545.257 144.416 545.2 144.588 545.086C144.766 544.971 144.906 544.812 145.008 544.609C145.11 544.405 145.16 544.173 145.16 543.912C145.16 543.652 145.11 543.42 145.008 543.216C144.912 543.013 144.776 542.857 144.598 542.749C144.426 542.634 144.226 542.577 143.997 542.577C143.78 542.577 143.587 542.634 143.415 542.749C143.243 542.863 143.11 543.022 143.014 543.226C142.919 543.423 142.871 543.652 142.871 543.913C142.871 544.173 142.919 544.405 143.014 544.609C143.11 544.812 143.24 544.971 143.405 545.086C143.577 545.2 143.771 545.257 143.987 545.257ZM149.42 546.411C148.95 546.412 148.533 546.307 148.171 546.097C147.808 545.881 147.522 545.585 147.312 545.21C147.109 544.835 147.007 544.402 147.007 543.912C147.007 543.423 147.112 542.99 147.322 542.615C147.538 542.24 147.83 541.947 148.199 541.738C148.574 541.521 149.004 541.413 149.487 541.413C149.907 541.413 150.291 541.525 150.641 541.747C150.997 541.963 151.28 542.284 151.49 542.71C151.706 543.13 151.814 543.642 151.814 544.246L148.199 544.246L148.314 544.132C148.314 544.367 148.371 544.574 148.486 544.752C148.606 544.923 148.759 545.057 148.943 545.152C149.134 545.241 149.338 545.286 149.554 545.286C149.815 545.286 150.028 545.232 150.193 545.124C150.358 545.009 150.485 544.863 150.574 544.685L151.7 545.124C151.567 545.391 151.392 545.623 151.175 545.82C150.966 546.011 150.714 546.157 150.422 546.259C150.129 546.361 149.796 546.411 149.42 546.411ZM148.381 543.426L148.266 543.311L150.565 543.311L150.46 543.426C150.46 543.197 150.406 543.016 150.298 542.882C150.19 542.742 150.056 542.641 149.897 542.577C149.745 542.513 149.595 542.482 149.449 542.482C149.303 542.482 149.147 542.513 148.981 542.577C148.816 542.641 148.673 542.742 148.552 542.882C148.438 543.016 148.381 543.197 148.381 543.426ZM153.405 543.788C153.405 543.273 153.503 542.847 153.7 542.51C153.904 542.173 154.161 541.922 154.473 541.756C154.791 541.591 155.122 541.508 155.465 541.508L155.465 542.729C155.172 542.729 154.896 542.764 154.635 542.834C154.381 542.904 154.174 543.019 154.015 543.178C153.856 543.337 153.777 543.54 153.777 543.788L153.405 543.788ZM152.518 546.297L152.518 541.528L153.777 541.528L153.777 546.297L152.518 546.297ZM156.18 546.297L156.179 541.528L157.439 541.527L157.439 546.297L156.18 546.297ZM156.809 540.755C156.618 540.755 156.45 540.685 156.303 540.545C156.157 540.399 156.084 540.227 156.084 540.03C156.084 539.833 156.157 539.664 156.303 539.524C156.45 539.378 156.618 539.305 156.809 539.305C157.006 539.305 157.175 539.378 157.314 539.524C157.461 539.664 157.534 539.833 157.534 540.03C157.534 540.227 157.461 540.399 157.315 540.545C157.175 540.685 157.006 540.755 156.809 540.755ZM160.727 546.411C160.256 546.411 159.84 546.306 159.477 546.096C159.115 545.88 158.829 545.585 158.619 545.209C158.415 544.834 158.314 544.402 158.313 543.912C158.313 543.422 158.418 542.99 158.628 542.615C158.844 542.24 159.137 541.947 159.506 541.737C159.881 541.521 160.31 541.413 160.793 541.413C161.213 541.413 161.598 541.524 161.948 541.747C162.304 541.963 162.587 542.284 162.797 542.71C163.013 543.13 163.121 543.642 163.121 544.246L159.506 544.246L159.62 544.131C159.62 544.367 159.678 544.573 159.792 544.751C159.913 544.923 160.065 545.057 160.25 545.152C160.441 545.241 160.644 545.286 160.86 545.286C161.121 545.286 161.334 545.232 161.499 545.123C161.665 545.009 161.792 544.863 161.881 544.685L163.007 545.123C162.873 545.39 162.698 545.623 162.482 545.82C162.272 546.01 162.021 546.157 161.728 546.259C161.436 546.36 161.102 546.411 160.727 546.411ZM159.687 543.426L159.573 543.311L161.871 543.311L161.766 543.426C161.766 543.197 161.712 543.015 161.604 542.882C161.496 542.742 161.363 542.64 161.204 542.577C161.051 542.513 160.902 542.481 160.755 542.481C160.609 542.481 160.453 542.513 160.288 542.577C160.123 542.64 159.98 542.742 159.859 542.882C159.744 543.015 159.687 543.197 159.687 543.426ZM163.824 546.297L163.824 541.527L165.007 541.527L165.083 542.405L165.083 546.297L163.824 546.297ZM166.981 546.297L166.981 543.855L168.24 543.855L168.241 546.296L166.981 546.297ZM166.981 543.855C166.981 543.53 166.943 543.279 166.867 543.101C166.797 542.923 166.695 542.796 166.562 542.72C166.428 542.637 166.272 542.596 166.094 542.596C165.77 542.589 165.519 542.688 165.341 542.891C165.169 543.095 165.083 543.397 165.083 543.797L164.663 543.797C164.663 543.289 164.737 542.859 164.883 542.51C165.035 542.154 165.245 541.883 165.512 541.699C165.786 541.508 166.104 541.413 166.466 541.413C166.841 541.413 167.163 541.489 167.43 541.642C167.697 541.794 167.9 542.033 168.04 542.357C168.18 542.675 168.247 543.088 168.24 543.597L168.24 543.855L166.981 543.855ZM171.516 546.411C171.02 546.411 170.578 546.306 170.19 546.096C169.802 545.88 169.5 545.584 169.284 545.209C169.067 544.827 168.959 544.395 168.959 543.912C168.959 543.422 169.067 542.99 169.284 542.615C169.5 542.239 169.799 541.947 170.18 541.737C170.562 541.521 171 541.413 171.497 541.413C171.973 541.413 172.409 541.53 172.803 541.765C173.198 542.001 173.484 542.341 173.662 542.786L172.479 543.206C172.39 543.021 172.25 542.875 172.059 542.767C171.875 542.653 171.668 542.595 171.439 542.595C171.204 542.595 170.997 542.653 170.819 542.767C170.641 542.875 170.501 543.028 170.4 543.225C170.298 543.422 170.247 543.651 170.247 543.912C170.247 544.172 170.298 544.401 170.4 544.599C170.501 544.789 170.644 544.942 170.829 545.056C171.013 545.171 171.223 545.228 171.458 545.228C171.687 545.228 171.894 545.168 172.078 545.047C172.269 544.926 172.409 544.767 172.498 544.57L173.69 544.99C173.506 545.441 173.217 545.791 172.823 546.039C172.435 546.287 171.999 546.411 171.516 546.411ZM176.551 546.411C176.081 546.411 175.664 546.306 175.302 546.096C174.939 545.88 174.653 545.584 174.443 545.209C174.24 544.834 174.138 544.401 174.138 543.912C174.138 543.422 174.243 542.99 174.453 542.614C174.669 542.239 174.961 541.947 175.33 541.737C175.705 541.521 176.134 541.412 176.618 541.412C177.037 541.412 177.422 541.524 177.772 541.746C178.128 541.962 178.411 542.284 178.621 542.71C178.837 543.129 178.945 543.641 178.945 544.245L175.33 544.245L175.445 544.131C175.445 544.366 175.502 544.573 175.616 544.751C175.737 544.923 175.89 545.056 176.074 545.152C176.265 545.241 176.468 545.285 176.685 545.285C176.945 545.285 177.158 545.231 177.324 545.123C177.489 545.008 177.616 544.862 177.705 544.684L178.831 545.123C178.697 545.39 178.522 545.622 178.306 545.819C178.096 546.01 177.845 546.156 177.553 546.258C177.26 546.36 176.926 546.411 176.551 546.411ZM175.511 543.425L175.397 543.311L177.696 543.311L177.591 543.425C177.591 543.196 177.537 543.015 177.429 542.881C177.321 542.741 177.187 542.64 177.028 542.576C176.875 542.513 176.726 542.481 176.58 542.481C176.433 542.481 176.278 542.513 176.112 542.576C175.947 542.64 175.804 542.742 175.683 542.881C175.569 543.015 175.511 543.196 175.511 543.425ZM181.432 546.411C181.127 546.411 180.841 546.366 180.574 546.277C180.307 546.182 180.071 546.048 179.868 545.876C179.664 545.698 179.505 545.482 179.391 545.228L180.469 544.732C180.564 544.884 180.694 545.018 180.86 545.132C181.025 545.24 181.216 545.295 181.432 545.295C181.642 545.295 181.804 545.266 181.919 545.209C182.033 545.145 182.09 545.056 182.09 544.942C182.09 544.827 182.043 544.744 181.947 544.694C181.858 544.636 181.734 544.589 181.575 544.551L181.136 544.436C180.679 544.315 180.316 544.124 180.049 543.864C179.788 543.597 179.658 543.291 179.658 542.948C179.658 542.458 179.814 542.08 180.125 541.813C180.443 541.546 180.892 541.412 181.47 541.412C181.769 541.412 182.046 541.457 182.3 541.546C182.561 541.635 182.783 541.759 182.968 541.918C183.152 542.077 183.279 542.261 183.349 542.471L182.31 542.948C182.265 542.821 182.157 542.719 181.985 542.643C181.814 542.56 181.642 542.519 181.47 542.519C181.299 542.519 181.165 542.557 181.07 542.633C180.981 542.703 180.936 542.802 180.936 542.929C180.936 543.012 180.981 543.082 181.07 543.139C181.159 543.19 181.286 543.234 181.451 543.272L182.071 543.425C182.383 543.501 182.631 543.625 182.815 543.797C183.006 543.962 183.143 544.15 183.225 544.36C183.314 544.563 183.359 544.763 183.359 544.961C183.359 545.247 183.273 545.501 183.101 545.724C182.936 545.94 182.707 546.108 182.415 546.229C182.129 546.35 181.801 546.411 181.432 546.411Z" fill="black"/>
</g>
<g filter="url(#filter3_d_546_2381)">
<path d="M49 413.636C49 410.8 51.2996 408.5 54.1362 408.5H95.2257C98.0624 408.5 100.362 410.8 100.362 413.636V460.478C100.362 463.314 98.0624 465.614 95.2257 465.614H54.1362C51.2996 465.614 49 463.314 49 460.478V413.636Z" fill="white"/>
<path d="M49.25 413.636C49.25 410.938 51.4376 408.75 54.1362 408.75H95.2257C97.9243 408.75 100.112 410.938 100.112 413.636V460.478C100.112 463.176 97.9243 465.364 95.2257 465.364H54.1362C51.4376 465.364 49.25 463.176 49.25 460.478V413.636Z" stroke="#EBECEF" stroke-width="0.5"/>
<path d="M79.0832 421.284L79.0833 422.752M70.2783 421.285L70.2784 422.752" stroke="#076EDD" stroke-width="1.10061" stroke-linecap="round" stroke-linejoin="round"/>
<path d="M67.7102 428.801C67.7101 425.604 67.71 424.005 68.6287 423.012C69.5474 422.019 71.0261 422.018 73.9835 422.018L75.3776 422.018C78.3349 422.018 79.8136 422.018 80.7324 423.011C81.6511 424.005 81.6512 425.603 81.6513 428.8L81.6513 429.177C81.6514 432.374 81.6514 433.973 80.7327 434.966C79.814 435.959 78.3353 435.959 75.378 435.959L73.9839 435.959C71.0265 435.96 69.5478 435.96 68.6291 434.966C67.7103 433.973 67.7103 432.375 67.7102 429.178L67.7102 428.801Z" fill="#076EDD" stroke="#076EDD" stroke-width="1.10061" stroke-linecap="round" stroke-linejoin="round"/>
<path d="M72.7649 428.865C73.4536 428.463 74.0547 428.625 74.4158 428.883C74.5638 428.989 74.6378 429.042 74.6814 429.042C74.725 429.042 74.7989 428.989 74.947 428.883C75.3081 428.625 75.9091 428.463 76.5979 428.865C77.5017 429.393 77.7062 431.135 75.6216 432.605C75.2245 432.885 75.0259 433.024 74.6815 433.024C74.3371 433.024 74.1385 432.885 73.7414 432.605C71.6567 431.135 71.8611 429.393 72.7649 428.865Z" stroke="white" stroke-width="1.10061" stroke-linecap="round"/>
<path d="M68.0771 425.687L81.2845 425.687" stroke="white" stroke-width="1.10061" stroke-linecap="round" stroke-linejoin="round"/>
<path d="M56.7188 452.297L56.7186 445.62L58.0254 445.62L58.0256 452.297L56.7188 452.297ZM61.2312 452.412C60.7034 452.412 60.3028 452.281 60.0293 452.021C59.7622 451.76 59.6287 451.388 59.6287 450.905L59.6285 446.04L60.8876 446.04L60.8877 450.628C60.8878 450.831 60.9323 450.987 61.0213 451.095C61.1103 451.197 61.2407 451.248 61.4124 451.248C61.476 451.248 61.5459 451.235 61.6222 451.21C61.6985 451.178 61.778 451.133 61.8607 451.076L62.2995 452.021C62.1469 452.135 61.9752 452.227 61.7844 452.297C61.6 452.373 61.4156 452.412 61.2312 452.412ZM58.856 448.596L58.8559 447.528L62.08 447.528L62.08 448.596L58.856 448.596ZM63.1517 452.297L63.1516 447.528L64.4107 447.528L64.4108 452.297L63.1517 452.297ZM63.7811 446.755C63.5903 446.755 63.4218 446.685 63.2756 446.545C63.1293 446.399 63.0562 446.227 63.0562 446.03C63.0562 445.833 63.1293 445.665 63.2755 445.525C63.4218 445.378 63.5903 445.305 63.7811 445.305C63.9782 445.305 64.1467 445.378 64.2866 445.525C64.4329 445.665 64.506 445.833 64.506 446.03C64.506 446.227 64.4329 446.399 64.2867 446.545C64.1468 446.685 63.9783 446.755 63.7811 446.755ZM65.5433 452.297L65.5431 447.528L66.7259 447.528L66.8022 448.405L66.8024 452.297L65.5433 452.297ZM68.7005 452.297L68.7005 449.855L69.9596 449.855L69.9596 452.297L68.7005 452.297ZM68.7005 449.855C68.7005 449.531 68.6623 449.28 68.586 449.102C68.516 448.923 68.4143 448.796 68.2807 448.72C68.1472 448.637 67.9914 448.596 67.8133 448.596C67.489 448.59 67.2378 448.688 67.0598 448.892C66.8881 449.095 66.8023 449.397 66.8023 449.798L66.3826 449.798C66.3826 449.289 66.4557 448.86 66.6019 448.51C66.7545 448.154 66.9644 447.884 67.2315 447.699C67.5049 447.509 67.8228 447.413 68.1853 447.413C68.5605 447.413 68.8816 447.489 69.1487 447.642C69.4158 447.795 69.6193 448.033 69.7592 448.357C69.8991 448.675 69.9659 449.089 69.9596 449.598L69.9596 449.855L68.7005 449.855ZM73.0918 452.411C72.6212 452.411 72.2047 452.306 71.8422 452.097C71.4797 451.88 71.1935 451.585 70.9837 451.21C70.7802 450.834 70.6784 450.402 70.6784 449.912C70.6784 449.423 70.7833 448.99 70.9931 448.615C71.2093 448.24 71.5018 447.947 71.8707 447.737C72.2458 447.521 72.6751 447.413 73.1584 447.413C73.5781 447.413 73.9628 447.524 74.3126 447.747C74.6687 447.963 74.9517 448.284 75.1615 448.71C75.3777 449.13 75.4859 449.642 75.4859 450.246L71.8707 450.246L71.9852 450.132C71.9852 450.367 72.0424 450.574 72.1569 450.752C72.2777 450.923 72.4304 451.057 72.6148 451.152C72.8056 451.241 73.009 451.286 73.2253 451.286C73.486 451.286 73.699 451.232 73.8643 451.124C74.0297 451.009 74.1569 450.863 74.2459 450.685L75.3714 451.124C75.2379 451.391 75.063 451.623 74.8468 451.82C74.637 452.011 74.3858 452.157 74.0933 452.259C73.8008 452.36 73.4669 452.411 73.0918 452.411ZM72.052 449.426L71.9375 449.311L74.2363 449.311L74.1314 449.426C74.1314 449.197 74.0773 449.016 73.9692 448.882C73.8611 448.742 73.7275 448.64 73.5686 448.577C73.4159 448.513 73.2665 448.481 73.1203 448.481C72.974 448.481 72.8182 448.513 72.6529 448.577C72.4875 448.64 72.3444 448.742 72.2236 448.882C72.1092 449.016 72.0519 449.197 72.052 449.426ZM77.0761 449.788C77.0761 449.273 77.1746 448.847 77.3717 448.51C77.5752 448.173 77.8327 447.922 78.1443 447.756C78.4623 447.591 78.793 447.508 79.1364 447.508L79.1364 448.729C78.8439 448.729 78.5672 448.764 78.3065 448.834C78.0522 448.904 77.8455 449.019 77.6865 449.178C77.5276 449.337 77.4481 449.54 77.4481 449.788L77.0761 449.788ZM76.1891 452.297L76.1889 447.527L77.448 447.527L77.4482 452.297L76.1891 452.297ZM82.6554 452.297L82.6172 451.333L82.6171 449.883C82.6171 449.597 82.5853 449.352 82.5217 449.149C82.4645 448.945 82.3691 448.79 82.2356 448.681C82.1084 448.567 81.9335 448.51 81.7109 448.51C81.5074 448.51 81.323 448.554 81.1577 448.643C80.9923 448.732 80.8525 448.869 80.738 449.053L79.6315 448.672C79.7205 448.468 79.8509 448.271 80.0226 448.081C80.1943 447.883 80.4168 447.724 80.6903 447.604C80.9701 447.476 81.3103 447.413 81.7109 447.413C82.1942 447.413 82.5948 447.505 82.9128 447.689C83.2371 447.874 83.4756 448.135 83.6282 448.472C83.7872 448.802 83.8635 449.196 83.8571 449.654L83.8286 452.297L82.6554 452.297ZM81.32 452.411C80.7476 452.411 80.3025 452.284 79.9845 452.03C79.6729 451.775 79.5171 451.416 79.5171 450.952C79.5171 450.443 79.6856 450.061 80.0226 449.807C80.366 449.546 80.8461 449.416 81.4629 449.416L82.6744 449.416L82.6744 450.351L81.9017 450.351C81.4884 450.351 81.2022 450.402 81.0433 450.503C80.8843 450.599 80.8048 450.735 80.8048 450.914C80.8048 451.053 80.8684 451.165 80.9956 451.247C81.1228 451.324 81.3008 451.362 81.5298 451.362C81.7396 451.362 81.924 451.314 82.083 451.219C82.2483 451.117 82.3787 450.99 82.4741 450.837C82.5695 450.678 82.6172 450.516 82.6171 450.351L82.9224 450.351C82.9224 450.999 82.7984 451.505 82.5504 451.867C82.3088 452.23 81.8986 452.411 81.32 452.411ZM85.7191 449.788C85.7191 449.273 85.8177 448.847 86.0148 448.51C86.2183 448.173 86.4758 447.921 86.7874 447.756C87.1053 447.591 87.436 447.508 87.7794 447.508L87.7794 448.729C87.4869 448.729 87.2103 448.764 86.9496 448.834C86.6952 448.904 86.4886 449.018 86.3296 449.177C86.1706 449.336 86.0911 449.54 86.0911 449.788L85.7191 449.788ZM84.8321 452.296L84.832 447.527L86.0911 447.527L86.0912 452.296L84.8321 452.296ZM89.3717 454.319C89.2 454.319 89.0092 454.284 88.7993 454.214C88.5959 454.15 88.4146 454.074 88.2556 453.985L88.723 452.964C88.8311 453.021 88.9297 453.066 89.0187 453.098C89.1141 453.136 89.1968 453.155 89.2667 453.155C89.4002 453.155 89.5179 453.117 89.6196 453.04C89.7214 452.97 89.804 452.865 89.8676 452.726L90.4304 451.4L91.9469 447.527L93.33 447.527L91.1649 452.706C91.0314 453.024 90.8915 453.304 90.7452 453.546C90.599 453.794 90.4177 453.985 90.2015 454.118C89.9917 454.252 89.7151 454.319 89.3717 454.319ZM90.0965 452.296L87.9121 447.527L89.2952 447.527L90.8882 451.4L91.2984 452.296L90.0965 452.296Z" fill="black"/>
</g>
<g filter="url(#filter4_d_546_2381)">
<path d="M258 559.636C258 556.8 260.3 554.5 263.136 554.5H304.226C307.062 554.5 309.362 556.8 309.362 559.636V605.509C309.362 608.346 307.062 610.645 304.226 610.645H263.136C260.3 610.645 258 608.346 258 605.509V559.636Z" fill="white"/>
<path d="M258.25 559.636C258.25 556.938 260.438 554.75 263.136 554.75H304.226C306.924 554.75 309.112 556.938 309.112 559.636V605.509C309.112 608.208 306.924 610.395 304.226 610.395H263.136C260.438 610.395 258.25 608.208 258.25 605.509V559.636Z" stroke="#EBECEF" stroke-width="0.5"/>
</g>
<g filter="url(#filter5_d_546_2381)">
<path d="M257 380.636C257 377.8 259.3 375.5 262.136 375.5H311.864C314.7 375.5 317 377.8 317 380.636V426.364C317 429.2 314.7 431.5 311.864 431.5H262.136C259.3 431.5 257 429.2 257 426.364V380.636Z" fill="white"/>
<path d="M257.25 380.636C257.25 377.938 259.438 375.75 262.136 375.75H311.864C314.562 375.75 316.75 377.938 316.75 380.636V426.364C316.75 429.062 314.562 431.25 311.864 431.25H262.136C259.438 431.25 257.25 429.062 257.25 426.364V380.636Z" stroke="#EBECEF" stroke-width="0.5"/>
<path d="M288.538 401.846C291.501 401.65 293.861 399.256 294.055 396.251C294.093 395.663 294.093 395.054 294.055 394.466C293.861 391.461 291.501 389.067 288.538 388.87C287.527 388.803 286.472 388.803 285.463 388.87C282.5 389.067 280.14 391.461 279.945 394.466C279.907 395.054 279.907 395.663 279.945 396.251C280.016 397.345 280.5 398.359 281.07 399.214C281.401 399.813 281.183 400.561 280.838 401.214C280.589 401.685 280.465 401.92 280.565 402.091C280.665 402.261 280.888 402.266 281.333 402.277C282.215 402.298 282.809 402.048 283.281 401.701C283.548 401.503 283.682 401.405 283.774 401.393C283.866 401.382 284.048 401.457 284.411 401.606C284.737 401.74 285.115 401.823 285.463 401.846C286.472 401.914 287.527 401.914 288.538 401.846Z" fill="#941CF7" stroke="#941CF7" stroke-width="1.0625" stroke-linejoin="round"/>
<path d="M284.521 397.32H289.479M284.521 393.778H287" stroke="white" stroke-width="1.0625" stroke-linecap="round" stroke-linejoin="round"/>
<path d="M272.22 418.066C271.883 418.066 271.568 418.025 271.276 417.942C270.983 417.859 270.722 417.745 270.493 417.599C270.264 417.446 270.074 417.278 269.921 417.093C269.775 416.909 269.679 416.715 269.635 416.511L270.913 416.13C270.996 416.346 271.142 416.534 271.352 416.692C271.562 416.845 271.826 416.925 272.144 416.931C272.481 416.937 272.754 416.864 272.964 416.712C273.18 416.559 273.288 416.362 273.288 416.12C273.288 415.91 273.202 415.735 273.031 415.595C272.865 415.449 272.636 415.338 272.344 415.262L271.476 415.033C271.151 414.95 270.865 414.826 270.617 414.661C270.369 414.489 270.175 414.279 270.035 414.031C269.896 413.783 269.826 413.494 269.826 413.163C269.826 412.534 270.032 412.044 270.446 411.694C270.865 411.338 271.457 411.16 272.22 411.16C272.646 411.16 273.018 411.224 273.336 411.351C273.66 411.472 273.93 411.646 274.147 411.875C274.363 412.104 274.528 412.375 274.643 412.686L273.374 413.077C273.298 412.861 273.158 412.677 272.954 412.524C272.751 412.371 272.493 412.295 272.182 412.295C271.864 412.295 271.612 412.368 271.428 412.515C271.25 412.661 271.161 412.867 271.161 413.135C271.161 413.344 271.231 413.51 271.371 413.631C271.517 413.751 271.714 413.844 271.962 413.907L272.84 414.127C273.412 414.266 273.857 414.518 274.175 414.88C274.493 415.243 274.652 415.646 274.652 416.091C274.652 416.486 274.557 416.832 274.366 417.131C274.175 417.424 273.899 417.653 273.536 417.818C273.174 417.983 272.735 418.066 272.22 418.066ZM278.71 417.951L278.634 417.074L278.634 413.182L279.893 413.182L279.893 417.951L278.71 417.951ZM275.477 415.624L275.476 413.182L276.736 413.182L276.736 415.624L275.477 415.624ZM276.736 415.624C276.736 415.942 276.771 416.193 276.841 416.378C276.917 416.556 277.022 416.686 277.155 416.769C277.295 416.845 277.451 416.883 277.623 416.883C277.953 416.889 278.205 416.791 278.376 416.587C278.548 416.378 278.634 416.075 278.634 415.681L279.063 415.681C279.063 416.19 278.987 416.622 278.834 416.978C278.682 417.328 278.472 417.598 278.205 417.789C277.938 417.974 277.623 418.066 277.26 418.066C276.879 418.066 276.554 417.99 276.287 417.837C276.02 417.684 275.817 417.449 275.677 417.131C275.543 416.807 275.477 416.39 275.477 415.882L275.477 415.624L276.736 415.624ZM281.003 419.859L281.003 413.182L282.186 413.182L282.262 414.059L282.262 419.859L281.003 419.859ZM283.702 418.066C283.302 418.066 282.961 417.964 282.682 417.76C282.408 417.557 282.198 417.268 282.052 416.892C281.906 416.517 281.833 416.075 281.833 415.567C281.833 415.052 281.906 414.61 282.052 414.241C282.198 413.866 282.408 413.576 282.682 413.373C282.961 413.169 283.302 413.067 283.702 413.067C284.141 413.067 284.519 413.169 284.837 413.373C285.162 413.576 285.413 413.865 285.591 414.241C285.769 414.609 285.858 415.051 285.858 415.566C285.858 416.075 285.769 416.517 285.591 416.892C285.413 417.268 285.162 417.557 284.837 417.76C284.519 417.964 284.141 418.066 283.702 418.066ZM283.378 416.912C283.607 416.912 283.807 416.854 283.979 416.74C284.157 416.625 284.297 416.466 284.399 416.263C284.5 416.059 284.551 415.827 284.551 415.567C284.551 415.306 284.5 415.074 284.399 414.87C284.303 414.667 284.166 414.511 283.988 414.403C283.817 414.288 283.616 414.231 283.387 414.231C283.171 414.231 282.977 414.288 282.806 414.403C282.634 414.517 282.5 414.676 282.405 414.88C282.31 415.077 282.262 415.306 282.262 415.567C282.262 415.827 282.31 416.059 282.405 416.263C282.5 416.466 282.631 416.625 282.796 416.74C282.968 416.854 283.162 416.912 283.378 416.912ZM286.703 419.859L286.703 413.182L287.886 413.182L287.962 414.059L287.962 419.859L286.703 419.859ZM289.402 418.066C289.002 418.066 288.662 417.964 288.382 417.76C288.108 417.557 287.899 417.267 287.752 416.892C287.606 416.517 287.533 416.075 287.533 415.566C287.533 415.051 287.606 414.609 287.752 414.241C287.898 413.865 288.108 413.576 288.382 413.373C288.662 413.169 289.002 413.067 289.402 413.067C289.841 413.067 290.219 413.169 290.537 413.372C290.862 413.576 291.113 413.865 291.291 414.24C291.469 414.609 291.558 415.051 291.558 415.566C291.558 416.075 291.469 416.517 291.291 416.892C291.113 417.267 290.862 417.557 290.538 417.76C290.22 417.964 289.841 418.066 289.402 418.066ZM289.078 416.911C289.307 416.911 289.507 416.854 289.679 416.74C289.857 416.625 289.997 416.466 290.099 416.263C290.2 416.059 290.251 415.827 290.251 415.566C290.251 415.306 290.2 415.074 290.099 414.87C290.003 414.667 289.867 414.511 289.689 414.403C289.517 414.288 289.317 414.231 289.088 414.231C288.871 414.231 288.677 414.288 288.506 414.403C288.334 414.517 288.201 414.676 288.105 414.88C288.01 415.077 287.962 415.306 287.962 415.566C287.962 415.827 288.01 416.059 288.105 416.263C288.201 416.466 288.331 416.625 288.496 416.74C288.668 416.854 288.862 416.911 289.078 416.911ZM294.597 418.065C294.114 418.065 293.681 417.96 293.3 417.751C292.925 417.534 292.629 417.239 292.413 416.864C292.203 416.488 292.098 416.056 292.098 415.566C292.098 415.077 292.203 414.644 292.413 414.269C292.622 413.894 292.915 413.601 293.29 413.391C293.665 413.175 294.095 413.067 294.578 413.067C295.068 413.067 295.5 413.175 295.875 413.391C296.25 413.601 296.543 413.894 296.753 414.269C296.963 414.644 297.068 415.077 297.068 415.566C297.068 416.056 296.963 416.488 296.753 416.863C296.543 417.239 296.25 417.534 295.875 417.751C295.506 417.96 295.08 418.065 294.597 418.065ZM294.597 416.902C294.832 416.902 295.039 416.844 295.217 416.73C295.395 416.615 295.532 416.46 295.627 416.263C295.729 416.059 295.78 415.827 295.78 415.566C295.78 415.305 295.729 415.077 295.627 414.879C295.525 414.676 295.382 414.517 295.198 414.403C295.02 414.288 294.813 414.231 294.578 414.231C294.349 414.231 294.142 414.288 293.958 414.403C293.78 414.517 293.64 414.676 293.538 414.879C293.436 415.077 293.386 415.306 293.386 415.566C293.386 415.827 293.437 416.059 293.538 416.263C293.64 416.46 293.783 416.616 293.968 416.73C294.152 416.844 294.362 416.902 294.597 416.902ZM298.756 415.442C298.756 414.927 298.855 414.501 299.052 414.164C299.256 413.827 299.513 413.576 299.825 413.41C300.143 413.245 300.473 413.162 300.817 413.162L300.817 414.383C300.524 414.383 300.248 414.418 299.987 414.488C299.732 414.558 299.526 414.673 299.367 414.832C299.208 414.991 299.128 415.194 299.128 415.442L298.756 415.442ZM297.869 417.951L297.869 413.181L299.128 413.181L299.128 417.951L297.869 417.951ZM303.42 418.065C302.892 418.065 302.492 417.935 302.218 417.674C301.951 417.413 301.817 417.041 301.817 416.558L301.817 411.693L303.076 411.693L303.077 416.281C303.077 416.485 303.121 416.641 303.21 416.749C303.299 416.851 303.429 416.901 303.601 416.901C303.665 416.901 303.735 416.889 303.811 416.863C303.887 416.831 303.967 416.787 304.049 416.73L304.488 417.674C304.336 417.788 304.164 417.881 303.973 417.951C303.789 418.027 303.604 418.065 303.42 418.065ZM301.045 414.25L301.045 413.181L304.269 413.181L304.269 414.25L301.045 414.25Z" fill="black"/>
</g>
<g filter="url(#filter6_d_546_2381)">
<rect x="164.808" y="304.725" width="51.3619" height="57.1137" rx="5.13619" fill="white"/>
<rect x="165.058" y="304.975" width="50.8619" height="56.6137" rx="4.88619" stroke="#EBECEF" stroke-width="0.5"/>
<g clip-path="url(#clip2_546_2381)">
<path d="M182.725 318.977L182.725 330.717C182.725 331.408 182.725 331.754 182.94 331.969C183.155 332.184 183.501 332.184 184.192 332.184L194.465 332.184C195.157 332.184 195.503 332.184 195.717 331.969C195.932 331.754 195.932 331.408 195.932 330.716L195.932 318.976" fill="#F7741C"/>
<path d="M182.725 318.977L182.725 330.717C182.725 331.408 182.725 331.754 182.94 331.969C183.155 332.184 183.501 332.184 184.192 332.184L194.465 332.184C195.157 332.184 195.503 332.184 195.717 331.969C195.932 331.754 195.932 331.408 195.932 330.716L195.932 318.976" stroke="#F7741C" stroke-width="1.10061" stroke-linecap="round" stroke-linejoin="round"/>
<path d="M188.228 321.912L188.228 323.012M188.228 323.012L188.228 324.113M188.228 323.012L190.429 323.012M190.429 321.912L190.429 323.012M190.429 323.012L190.429 324.113" stroke="white" stroke-width="1.10061" stroke-linecap="round" stroke-linejoin="round"/>
<path d="M190.796 332.184L190.796 329.249C190.796 328.438 190.139 327.781 189.329 327.781C188.518 327.781 187.861 328.439 187.861 329.249L187.861 332.184" stroke="white" stroke-width="1.10061" stroke-linecap="round" stroke-linejoin="round"/>
<path d="M181.991 318.977L186.394 318.977C186.863 318.116 188 317.509 189.329 317.509C190.657 317.509 191.794 318.116 192.264 318.977L196.666 318.977" fill="#F7741C"/>
<path d="M181.991 318.977L186.394 318.977C186.863 318.116 188 317.509 189.329 317.509C190.657 317.509 191.794 318.116 192.264 318.977L196.666 318.977" stroke="#F7741C" stroke-width="1.10061" stroke-linecap="round" stroke-linejoin="round"/>
<path d="M184.926 321.912L185.66 321.912M184.926 324.847L185.66 324.847M184.926 327.782L185.66 327.782" stroke="white" stroke-width="1.10061" stroke-linecap="round" stroke-linejoin="round"/>
<path d="M192.997 321.912L193.731 321.912M192.997 324.847L193.731 324.847M192.997 327.782L193.731 327.782" stroke="white" stroke-width="1.10061" stroke-linecap="round" stroke-linejoin="round"/>
</g>
<path d="M180.132 348.636C179.795 348.636 179.48 348.595 179.187 348.512C178.895 348.429 178.634 348.315 178.405 348.169C178.176 348.016 177.986 347.848 177.833 347.663C177.687 347.479 177.591 347.285 177.547 347.081L178.825 346.7C178.908 346.916 179.054 347.104 179.264 347.263C179.474 347.415 179.737 347.495 180.055 347.501C180.392 347.507 180.666 347.434 180.876 347.282C181.092 347.129 181.2 346.932 181.2 346.69C181.2 346.48 181.114 346.305 180.942 346.166C180.777 346.019 180.548 345.908 180.256 345.832L179.388 345.603C179.063 345.52 178.777 345.396 178.529 345.231C178.281 345.059 178.087 344.849 177.947 344.601C177.807 344.353 177.737 344.064 177.737 343.733C177.737 343.104 177.944 342.614 178.357 342.264C178.777 341.908 179.368 341.73 180.132 341.73C180.558 341.73 180.93 341.794 181.248 341.921C181.572 342.042 181.842 342.217 182.058 342.445C182.275 342.674 182.44 342.945 182.554 343.256L181.286 343.647C181.209 343.431 181.07 343.247 180.866 343.094C180.663 342.941 180.405 342.865 180.093 342.865C179.775 342.865 179.524 342.938 179.34 343.085C179.162 343.231 179.073 343.438 179.073 343.705C179.073 343.914 179.143 344.08 179.283 344.201C179.429 344.321 179.626 344.414 179.874 344.477L180.752 344.697C181.324 344.836 181.769 345.088 182.087 345.45C182.405 345.813 182.564 346.216 182.564 346.662C182.564 347.056 182.469 347.402 182.278 347.701C182.087 347.994 181.811 348.223 181.448 348.388C181.086 348.553 180.647 348.636 180.132 348.636ZM185.439 348.636C184.911 348.636 184.511 348.506 184.237 348.245C183.97 347.984 183.837 347.612 183.837 347.129L183.837 342.264L185.096 342.264L185.096 346.852C185.096 347.056 185.14 347.211 185.229 347.32C185.318 347.421 185.449 347.472 185.62 347.472C185.684 347.472 185.754 347.459 185.83 347.434C185.907 347.402 185.986 347.358 186.069 347.3L186.508 348.245C186.355 348.359 186.183 348.451 185.992 348.521C185.808 348.598 185.624 348.636 185.439 348.636ZM183.064 344.821L183.064 343.752L186.288 343.752L186.288 344.82L183.064 344.821ZM190.08 348.521L190.042 347.558L190.042 346.108C190.042 345.822 190.01 345.577 189.947 345.374C189.889 345.17 189.794 345.014 189.661 344.906C189.533 344.792 189.358 344.735 189.136 344.735C188.932 344.735 188.748 344.779 188.583 344.868C188.417 344.957 188.277 345.094 188.163 345.278L187.056 344.897C187.145 344.693 187.276 344.496 187.448 344.305C187.619 344.108 187.842 343.949 188.115 343.828C188.395 343.701 188.735 343.638 189.136 343.638C189.619 343.638 190.02 343.73 190.338 343.914C190.662 344.099 190.901 344.359 191.053 344.696C191.212 345.027 191.288 345.421 191.282 345.879L191.254 348.521L190.08 348.521ZM188.745 348.636C188.173 348.636 187.727 348.509 187.409 348.254C187.098 348 186.942 347.641 186.942 347.176C186.942 346.668 187.111 346.286 187.448 346.032C187.791 345.771 188.271 345.641 188.888 345.641L190.099 345.641L190.099 346.575L189.327 346.575C188.913 346.575 188.627 346.626 188.468 346.728C188.309 346.824 188.23 346.96 188.23 347.138C188.23 347.278 188.293 347.389 188.421 347.472C188.548 347.548 188.726 347.587 188.955 347.587C189.165 347.587 189.349 347.539 189.508 347.443C189.673 347.342 189.804 347.215 189.899 347.062C189.994 346.903 190.042 346.741 190.042 346.575L190.347 346.575C190.347 347.224 190.223 347.73 189.975 348.092C189.734 348.455 189.324 348.636 188.745 348.636ZM193.081 350.543C192.909 350.543 192.718 350.508 192.508 350.439C192.305 350.375 192.124 350.299 191.965 350.21L192.432 349.189C192.54 349.246 192.639 349.291 192.728 349.323C192.823 349.361 192.906 349.38 192.976 349.38C193.109 349.38 193.227 349.342 193.329 349.265C193.43 349.195 193.513 349.09 193.577 348.95L194.139 347.625L195.656 343.752L197.039 343.752L194.874 348.931C194.74 349.249 194.6 349.529 194.454 349.771C194.308 350.019 194.127 350.21 193.91 350.343C193.701 350.477 193.424 350.543 193.081 350.543ZM193.805 348.521L191.621 343.752L193.004 343.752L194.597 347.625L195.007 348.521L193.805 348.521ZM199.378 348.636C199.072 348.636 198.786 348.591 198.519 348.502C198.252 348.407 198.017 348.273 197.813 348.101C197.61 347.923 197.451 347.707 197.336 347.453L198.414 346.957C198.51 347.109 198.64 347.243 198.805 347.357C198.971 347.465 199.161 347.52 199.378 347.52C199.587 347.52 199.75 347.491 199.864 347.434C199.979 347.37 200.036 347.281 200.036 347.167C200.036 347.052 199.988 346.969 199.893 346.919C199.804 346.861 199.68 346.814 199.521 346.776L199.082 346.661C198.624 346.54 198.262 346.349 197.994 346.089C197.734 345.822 197.603 345.516 197.603 345.173C197.603 344.683 197.759 344.305 198.071 344.038C198.389 343.771 198.837 343.637 199.416 343.637C199.715 343.637 199.991 343.682 200.246 343.771C200.506 343.86 200.729 343.984 200.913 344.143C201.098 344.302 201.225 344.486 201.295 344.696L200.255 345.173C200.211 345.046 200.102 344.944 199.931 344.868C199.759 344.785 199.587 344.744 199.416 344.744C199.244 344.744 199.11 344.782 199.015 344.858C198.926 344.928 198.882 345.027 198.882 345.154C198.882 345.237 198.926 345.307 199.015 345.364C199.104 345.415 199.231 345.459 199.397 345.497L200.017 345.65C200.328 345.726 200.576 345.85 200.761 346.022C200.951 346.187 201.088 346.375 201.171 346.585C201.26 346.788 201.304 346.988 201.304 347.186C201.304 347.472 201.219 347.726 201.047 347.949C200.882 348.165 200.653 348.333 200.36 348.454C200.074 348.575 199.746 348.636 199.378 348.636Z" fill="black"/>
</g>
</g>
<defs>
<filter id="filter0_f_546_2381" x="-96.6782" y="264.322" width="562.356" height="380.356" filterUnits="userSpaceOnUse" color-interpolation-filters="sRGB">
<feFlood flood-opacity="0" result="BackgroundImageFix"/>
<feBlend mode="normal" in="SourceGraphic" in2="BackgroundImageFix" result="shape"/>
<feGaussianBlur stdDeviation="33.8391" result="effect1_foregroundBlur_546_2381"/>
</filter>
<filter id="filter1_d_546_2381" x="54.4614" y="247.5" width="60.3863" height="74.6274" filterUnits="userSpaceOnUse" color-interpolation-filters="sRGB">
<feFlood flood-opacity="0" result="BackgroundImageFix"/>
<feColorMatrix in="SourceAlpha" type="matrix" values="0 0 0 0 0 0 0 0 0 0 0 0 0 0 0 0 0 0 127 0" result="hardAlpha"/>
<feOffset dx="-8.07116" dy="14.6748"/>
<feGaussianBlur stdDeviation="0.733742"/>
<feComposite in2="hardAlpha" operator="out"/>
<feColorMatrix type="matrix" values="0 0 0 0 0 0 0 0 0 0 0 0 0 0 0 0 0 0 0.09 0"/>
<feBlend mode="normal" in2="BackgroundImageFix" result="effect1_dropShadow_546_2381"/>
<feBlend mode="normal" in="SourceGraphic" in2="effect1_dropShadow_546_2381" result="shape"/>
</filter>
<filter id="filter2_d_546_2381" x="109.461" y="502.5" width="85.4332" height="73.2561" filterUnits="userSpaceOnUse" color-interpolation-filters="sRGB">
<feFlood flood-opacity="0" result="BackgroundImageFix"/>
<feColorMatrix in="SourceAlpha" type="matrix" values="0 0 0 0 0 0 0 0 0 0 0 0 0 0 0 0 0 0 127 0" result="hardAlpha"/>
<feOffset dx="-8.07116" dy="14.6748"/>
<feGaussianBlur stdDeviation="0.733742"/>
<feComposite in2="hardAlpha" operator="out"/>
<feColorMatrix type="matrix" values="0 0 0 0 0 0 0 0 0 0 0 0 0 0 0 0 0 0 0.09 0"/>
<feBlend mode="normal" in2="BackgroundImageFix" result="effect1_dropShadow_546_2381"/>
<feBlend mode="normal" in="SourceGraphic" in2="effect1_dropShadow_546_2381" result="shape"/>
</filter>
<filter id="filter3_d_546_2381" x="39.4614" y="408.5" width="60.901" height="73.2563" filterUnits="userSpaceOnUse" color-interpolation-filters="sRGB">
<feFlood flood-opacity="0" result="BackgroundImageFix"/>
<feColorMatrix in="SourceAlpha" type="matrix" values="0 0 0 0 0 0 0 0 0 0 0 0 0 0 0 0 0 0 127 0" result="hardAlpha"/>
<feOffset dx="-8.07116" dy="14.6748"/>
<feGaussianBlur stdDeviation="0.733742"/>
<feComposite in2="hardAlpha" operator="out"/>
<feColorMatrix type="matrix" values="0 0 0 0 0 0 0 0 0 0 0 0 0 0 0 0 0 0 0.09 0"/>
<feBlend mode="normal" in2="BackgroundImageFix" result="effect1_dropShadow_546_2381"/>
<feBlend mode="normal" in="SourceGraphic" in2="effect1_dropShadow_546_2381" result="shape"/>
</filter>
<filter id="filter4_d_546_2381" x="248.461" y="554.5" width="60.901" height="72.2876" filterUnits="userSpaceOnUse" color-interpolation-filters="sRGB">
<feFlood flood-opacity="0" result="BackgroundImageFix"/>
<feColorMatrix in="SourceAlpha" type="matrix" values="0 0 0 0 0 0 0 0 0 0 0 0 0 0 0 0 0 0 127 0" result="hardAlpha"/>
<feOffset dx="-8.07116" dy="14.6748"/>
<feGaussianBlur stdDeviation="0.733742"/>
<feComposite in2="hardAlpha" operator="out"/>
<feColorMatrix type="matrix" values="0 0 0 0 0 0 0 0 0 0 0 0 0 0 0 0 0 0 0.09 0"/>
<feBlend mode="normal" in2="BackgroundImageFix" result="effect1_dropShadow_546_2381"/>
<feBlend mode="normal" in="SourceGraphic" in2="effect1_dropShadow_546_2381" result="shape"/>
</filter>
<filter id="filter5_d_546_2381" x="247.461" y="375.5" width="69.5386" height="72.1423" filterUnits="userSpaceOnUse" color-interpolation-filters="sRGB">
<feFlood flood-opacity="0" result="BackgroundImageFix"/>
<feColorMatrix in="SourceAlpha" type="matrix" values="0 0 0 0 0 0 0 0 0 0 0 0 0 0 0 0 0 0 127 0" result="hardAlpha"/>
<feOffset dx="-8.07116" dy="14.6748"/>
<feGaussianBlur stdDeviation="0.733742"/>
<feComposite in2="hardAlpha" operator="out"/>
<feColorMatrix type="matrix" values="0 0 0 0 0 0 0 0 0 0 0 0 0 0 0 0 0 0 0.09 0"/>
<feBlend mode="normal" in2="BackgroundImageFix" result="effect1_dropShadow_546_2381"/>
<feBlend mode="normal" in="SourceGraphic" in2="effect1_dropShadow_546_2381" result="shape"/>
</filter>
<filter id="filter6_d_546_2381" x="156.003" y="304.725" width="60.1672" height="71.7886" filterUnits="userSpaceOnUse" color-interpolation-filters="sRGB">
<feFlood flood-opacity="0" result="BackgroundImageFix"/>
<feColorMatrix in="SourceAlpha" type="matrix" values="0 0 0 0 0 0 0 0 0 0 0 0 0 0 0 0 0 0 127 0" result="hardAlpha"/>
<feOffset dx="-6.60368" dy="12.4736"/>
<feGaussianBlur stdDeviation="1.10061"/>
<feComposite in2="hardAlpha" operator="out"/>
<feColorMatrix type="matrix" values="0 0 0 0 0 0 0 0 0 0 0 0 0 0 0 0 0 0 0.09 0"/>
<feBlend mode="normal" in2="BackgroundImageFix" result="effect1_dropShadow_546_2381"/>
<feBlend mode="normal" in="SourceGraphic" in2="effect1_dropShadow_546_2381" result="shape"/>
</filter>
<linearGradient id="paint0_linear_546_2381" x1="184.5" y1="332" x2="184.5" y2="577" gradientUnits="userSpaceOnUse">
<stop stop-color="white"/>
<stop offset="1" stop-color="#D4BAEF"/>
</linearGradient>
<clipPath id="clip0_546_2381">
<rect y="173" width="368" height="388" rx="13" fill="white"/>
</clipPath>
<clipPath id="clip1_546_2381">
<rect width="368" height="557" rx="13" fill="white"/>
</clipPath>
<clipPath id="clip2_546_2381">
<rect width="17.6098" height="17.6098" fill="white" transform="translate(180.523 316.042)"/>
</clipPath>
</defs>
</svg>
